<svg xmlns="http://www.w3.org/2000/svg" width="15" height="15" fill="none" viewBox="0 0 15 15">
  <path stroke="#DB4614" stroke-linecap="round" stroke-linejoin="round" stroke-width="2" d="M9.375 1.25h-3.75A.625.625 0 0 0 5 1.875v1.25c0 .345.28.625.625.625h3.75c.345 0 .625-.28.625-.625v-1.25a.625.625 0 0 0-.625-.625Z"/>
  <path stroke="#DB4614" stroke-linecap="round" stroke-linejoin="round" stroke-width="2" d="M10 2.5h1.25a1.25 1.25 0 0 1 1.25 1.25v8.75a1.25 1.25 0 0 1-1.25 1.25h-7.5A1.25 1.25 0 0 1 2.5 12.5V3.75A1.25 1.25 0 0 1 3.75 2.5H5m2.5 4.375H10M7.5 10H10M5 6.875h.006M5 10h.006"/>
</svg>
