<svg xmlns="http://www.w3.org/2000/svg" width="15" height="15" fill="none" viewBox="0 0 15 15">
  <path stroke="#DB4614" stroke-linecap="round" stroke-linejoin="round" stroke-width="2" d="M9.375 13.125v-2.5a1.25 1.25 0 0 1 1.25-1.25h2.5M4.375 2.5v1.25A1.875 1.875 0 0 0 6.25 5v0A1.25 1.25 0 0 1 7.5 6.25a1.25 1.25 0 0 0 2.5 0A1.25 1.25 0 0 1 11.25 5h1.875M1.875 6.875h1.25a1.25 1.25 0 0 1 1.25 1.25v.625A1.25 1.25 0 0 0 5.625 10a1.25 1.25 0 0 1 1.25 1.25v2.5"/>
  <path stroke="#DB4614" stroke-linecap="round" stroke-linejoin="round" stroke-width="2" d="M7.5 13.75a6.25 6.25 0 1 0 0-12.5 6.25 6.25 0 0 0 0 12.5Z"/>
</svg>
