<svg xmlns="http://www.w3.org/2000/svg" width="15" height="15" fill="none" viewBox="0 0 15 15">
  <path stroke="#DB4614" stroke-linecap="round" stroke-linejoin="round" stroke-width="2" d="M2.813 10.313c-.938.787-1.25 3.125-1.25 3.125s2.337-.313 3.125-1.25c.443-.525.437-1.332-.057-1.82a1.363 1.363 0 0 0-1.819-.055v0ZM7.5 9.375 5.625 7.5a13.75 13.75 0 0 1 1.25-2.469A8.05 8.05 0 0 1 13.75 1.25c0 1.7-.488 4.687-3.75 6.875-.79.5-1.627.918-2.5 1.25v0Z"/>
  <path stroke="#DB4614" stroke-linecap="round" stroke-linejoin="round" stroke-width="2" d="M5.625 7.5H2.5S2.844 5.606 3.75 5c1.013-.675 3.125 0 3.125 0M7.5 9.375V12.5s1.894-.344 2.5-1.25c.675-1.012 0-3.125 0-3.125"/>
</svg>
