<svg xmlns="http://www.w3.org/2000/svg" width="14" height="14" fill="none" viewBox="0 0 14 14">
  <mask id="a" fill="#fff">
    <path d="M13.551 5.186a.23.23 0 0 0-.186-.156L9.11 4.412 7.207.555a.24.24 0 0 0-.413 0L4.89 4.412.634 5.03a.23.23 0 0 0-.127.394l3.08 3-.727 4.239a.23.23 0 0 0 .334.243L7 10.904l3.806 2.002a.23.23 0 0 0 .335-.242l-.727-4.24 3.08-3.001a.231.231 0 0 0 .057-.237Z"/>
  </mask>
  <path fill="#F8C42F" d="m13.551 5.186-.951.309.951-.309Zm-.186-.156-.144.99h.002l.142-.99ZM9.11 4.412l-.897.442.233.472.52.075.144-.99ZM7.207.555l.896-.442-.018-.036-.02-.035-.858.513ZM7 .438v-1 1Zm-.206.117L5.935.042l-.02.035-.018.036.897.442ZM4.89 4.412l.144.99.52-.076.233-.472-.897-.442ZM.634 5.03l.139.99h.005l-.144-.99Zm-.127.394.697-.717-.004-.004-.693.72Zm3.08 3 .986.17.09-.52-.378-.366-.697.716Zm-.727 4.239.985.172v-.003l-.985-.17Zm.334.243-.466-.885.466.885ZM7 10.904l.465-.885L7 9.775l-.465.244.465.885Zm3.806 2.002-.465.885.465-.885Zm.335-.242.985-.168v-.001l-.986.169Zm-.727-4.24-.698-.716-.377.367.09.518.985-.169Zm3.08-3.001.697.716.002-.002-.7-.714Zm1.008-.545a1.23 1.23 0 0 0-.377-.561l-1.289 1.53a.77.77 0 0 1-.236-.352l1.902-.617Zm-.377-.561a1.23 1.23 0 0 0-.617-.277l-.285 1.98a.77.77 0 0 1-.387-.174l1.289-1.53Zm-.616-.277-4.256-.618-.287 1.98 4.255.617.288-1.979Zm-3.503-.07L8.103.112 6.31.998l1.903 3.856 1.793-.885ZM8.065.041A1.24 1.24 0 0 0 7.612-.4l-.987 1.74a.76.76 0 0 1-.277-.271L8.065.042ZM7.612-.4A1.24 1.24 0 0 0 7-.562v2a.76.76 0 0 1-.375-.099L7.612-.4ZM7-.562a1.24 1.24 0 0 0-.612.162l.987 1.74A.76.76 0 0 1 7 1.437v-2ZM6.388-.4a1.24 1.24 0 0 0-.453.442l1.717 1.027a.76.76 0 0 1-.277.27L6.388-.4Zm-.491.513L3.994 3.969l1.793.885L7.69.998 5.897.113Zm-1.15 3.31L.49 4.04l.287 1.98 4.257-.62-.287-1.979Zm-4.25.616a1.23 1.23 0 0 0-.621.276L1.16 5.848a.77.77 0 0 1-.388.172L.496 4.04Zm-.621.276a1.23 1.23 0 0 0-.38.563l1.902.617a.77.77 0 0 1-.237.353L-.124 4.315Zm-.38.563a1.23 1.23 0 0 0-.023.679l1.94-.486a.77.77 0 0 1-.015.424l-1.902-.617Zm-.023.679c.056.224.174.427.34.587L1.2 4.703a.77.77 0 0 1 .213.368l-1.94.486Zm.336.583 3.08 3 1.396-1.432-3.08-3L-.192 6.14Zm2.793 2.115-.728 4.238 1.971.339.728-4.239-1.971-.338Zm-.728 4.236c-.04.226-.014.46.072.672l1.854-.749a.77.77 0 0 1 .045.42l-1.97-.343Zm.072.672c.086.214.23.399.416.534L3.54 12.08a.77.77 0 0 1 .26.334l-1.854.75Zm.416.534c.186.135.406.216.635.233l.145-1.995a.77.77 0 0 1 .398.145l-1.178 1.617Zm.635.233c.23.016.46-.032.663-.14l-.932-1.769a.77.77 0 0 1 .414-.086l-.145 1.995Zm.662-.139 3.806-2.002-.93-1.77-3.807 2.002.931 1.77Zm2.876-2.002 3.806 2.002.93-1.77-3.806-2.002-.93 1.77Zm3.806 2.002c.203.107.432.155.66.139l-.143-1.995a.77.77 0 0 1 .414.086l-.931 1.77Zm.66.139a1.23 1.23 0 0 0 .635-.232l-1.175-1.619a.77.77 0 0 1 .397-.144l.144 1.995Zm.635-.232a1.23 1.23 0 0 0 .417-.531l-1.852-.755a.77.77 0 0 1 .26-.333l1.175 1.619Zm.417-.531a1.23 1.23 0 0 0 .073-.671l-1.971.336a.77.77 0 0 1 .046-.42l1.852.755Zm.073-.672-.727-4.24-1.97.338.726 4.24 1.971-.338ZM11.112 9.14l3.08-3.002-1.397-1.432-3.08 3.001 1.397 1.432Zm3.081-3.004c.164-.16.28-.363.334-.586l-1.942-.476a.769.769 0 0 1 .208-.366l1.4 1.428Zm.334-.586a1.232 1.232 0 0 0-.025-.673l-1.902.617a.769.769 0 0 1-.015-.42l1.942.476Z" mask="url(#a)"/>
</svg>
