<svg xmlns="http://www.w3.org/2000/svg" width="15" height="15" fill="none" viewBox="0 0 15 15">
  <path stroke="#DB4614" stroke-linecap="round" stroke-linejoin="round" stroke-width="2" d="M5.625 8.125a.625.625 0 1 0 0-1.25.625.625 0 0 0 0 1.25Zm3.75 0a.625.625 0 1 0 0-1.25.625.625 0 0 0 0 1.25ZM5 12.5v1.25h5V12.5m-2.187-1.875L7.5 10l-.313.625h.625Z"/>
  <path stroke="#DB4614" stroke-linecap="round" stroke-linejoin="round" stroke-width="2" d="M10 12.5a1.25 1.25 0 0 0 .975-2.031 5 5 0 1 0-6.95 0A1.25 1.25 0 0 0 5 12.5"/>
</svg>
