<svg xmlns="http://www.w3.org/2000/svg" width="15" height="15" fill="none" viewBox="0 0 15 15">
  <path stroke="#DB4614" stroke-linecap="round" stroke-linejoin="round" stroke-width="2" d="M12.5 5.625V3.75a1.25 1.25 0 0 0-1.25-1.25h-7.5A1.25 1.25 0 0 0 2.5 3.75v1.875"/>
  <path stroke="#DB4614" stroke-linecap="round" stroke-linejoin="round" stroke-width="2" d="M1.25 6.875V10a1.25 1.25 0 0 0 1.25 1.25h10A1.25 1.25 0 0 0 13.75 10V6.875a1.25 1.25 0 0 0-2.5 0v1.25h-7.5v-1.25a1.25 1.25 0 0 0-2.5 0v0ZM2.5 11.25v1.25m10-1.25v1.25m-5-10v5.625"/>
</svg>
