<svg xmlns="http://www.w3.org/2000/svg" width="15" height="15" fill="none" viewBox="0 0 15 15">
  <path stroke="#DB4614" stroke-linecap="round" stroke-linejoin="round" stroke-width="2" d="M1.25 7.5a3.125 3.125 0 0 0 3.125 3.125 5 5 0 0 1 3.125 1.25 5 5 0 0 1 3.125-1.25A3.125 3.125 0 0 0 13.75 7.5V4.375h-3.125A5 5 0 0 0 7.5 5.625a5 5 0 0 0-3.125-1.25H1.25V7.5Z"/>
  <path stroke="#DB4614" stroke-linecap="round" stroke-linejoin="round" stroke-width="2" d="M3.75 6.875c.938 0 1.875.313 1.875 1.25-1.25 0-1.875 0-1.875-1.25Zm7.5 0c-.938 0-1.875.313-1.875 1.25 1.25 0 1.875 0 1.875-1.25Z"/>
</svg>
